<?xml version="1.0" encoding="UTF-8" standalone="no"?>
<!DOCTYPE svg PUBLIC "-//W3C//DTD SVG 1.1//EN" "http://www.w3.org/Graphics/SVG/1.1/DTD/svg11.dtd">
<svg width="100%" height="100%" viewBox="0 0 290 287" version="1.1" xmlns="http://www.w3.org/2000/svg" xmlns:xlink="http://www.w3.org/1999/xlink" xml:space="preserve" xmlns:serif="http://www.serif.com/" style="fill-rule:evenodd;clip-rule:evenodd;stroke-linejoin:round;stroke-miterlimit:2;">
    <g transform="matrix(1,0,0,1,-118.379,-135.278)">
        <path d="M250,137.425C225.466,140.765 202.603,147.325 182,161.721C165.39,173.327 151.155,187.765 140.425,205C106.052,260.213 118.081,339.546 166,382.83C197.538,411.318 240.039,423.736 282,418.715C302.227,416.294 321.589,409.473 339,399C353.225,390.443 365.948,379.129 376.112,366C422.796,305.699 412.977,215.364 353,167.666C337.051,154.982 318.678,146.357 299,141.374C283.55,137.462 265.912,135.259 250,137.425Z" style="fill:white;fill-rule:nonzero;"/>
    </g>
    <g transform="matrix(1,0,0,1,-118.379,-135.278)">
        <path d="M226,167L231,172C224.961,169.84 219.436,167.108 213,166.134C208.347,165.431 203.719,164.766 199,165.09C194.14,165.422 185.284,165.93 181.742,169.703C179.648,171.933 179.45,176.107 179.17,179C178.324,187.738 179.595,197.751 182.541,206C184.14,210.478 189.045,216.227 188.802,221C188.583,225.297 184.581,230.101 182.862,234C180.001,240.488 178.683,247.172 177,254C173.581,247.189 172.399,239.463 174.015,232C174.85,228.14 177.3,223.954 177.231,220C177.144,215.011 173.167,209.915 172,205C159.242,214.786 152.152,234.895 148.375,250C136.979,295.572 154.489,344.869 192,373.101C206.573,384.069 223.672,390.083 241,395C248.858,377.36 259.27,363.165 275,351.478C288.502,341.447 304.149,334.715 317,323.7C324.657,317.137 331.647,309.47 337.135,301C340.491,295.821 342.447,289.158 347,285C351.751,322.791 315.704,342.943 289,360.667C276.237,369.138 260.871,380.896 258,397C272.955,397 287.839,395.348 302,390.308C354.689,371.556 385.496,320.876 381.086,266C379.781,249.774 374.189,234.016 365.988,220C362.887,214.698 359.764,208.937 355,205C353.437,209.59 349.111,215.177 349.133,220C349.151,223.96 351.825,228.061 352.535,232C353.905,239.599 352.655,246.876 350,254C347.658,246.596 346.466,239.14 343.11,232C341.524,228.625 337.384,224.283 337.517,220.424C337.678,215.747 342.709,209.576 344.305,205C347.197,196.709 347.042,188.666 346.999,180C346.982,176.468 347.182,172.228 344.486,169.513C340.814,165.816 332.889,165.637 328,165.17C323.299,164.721 318.634,165.108 314,165.924C307.663,167.039 301.911,169.576 296,172L301,167C279.034,157.549 248.101,158.54 226,167Z" style="fill:rgb(184,72,27);fill-rule:nonzero;"/>
    </g>
    <g transform="matrix(1,0,0,1,-118.96,-136.34)">
        <path d="M256,165C251.652,173.157 248.142,180.961 241.929,188C240.228,189.927 236.196,193.456 238.086,196.4C240.02,199.413 248.722,199.577 252,200C250.236,205.565 249.635,210.268 251,216C253.082,211.373 254.374,205.879 256,201C262.464,203.103 268.893,205.294 275,208.305C277.033,209.307 280.118,211.431 282.4,209.917C285.588,207.804 285.554,198.51 286,195C288.605,199.463 290.802,203.956 292,209C294.909,202.052 289.618,195.852 289.089,189C288.666,183.527 292.711,178.575 293,173C280.085,171.368 268.437,169.047 256,165Z" style="fill:white;fill-rule:nonzero;"/>
    </g>
    <g transform="matrix(1,0,0,1,-118.379,-135.278)">
        <path d="M258,170C254.702,178.501 249.976,185.444 245,193C256.656,194.505 266.828,198.944 278,202C279.394,196.616 280.427,191.206 282.449,186C283.243,183.957 285.233,180.784 283.867,178.6C282.536,176.47 278.191,176.398 276,175.87C269.822,174.378 263.92,172.284 258,170Z" style="fill:rgb(184,72,27);fill-rule:nonzero;"/>
    </g>
    <g transform="matrix(1,0,0,1,-118.379,-135.278)">
        <path d="M194,179C191.456,192.702 195.434,208.421 203,220C207.552,216.294 210.85,211.185 215.004,207.001C220.807,201.156 227.201,196.588 234,192C224.582,179.242 208.334,179 194,179Z" style="fill:white;fill-rule:nonzero;"/>
    </g>
    <g transform="matrix(1,0,0,1,-118.379,-136.278)">
        <path d="M292,192C304.644,198.731 315.054,209.939 323.055,221.701C329.522,207.783 333.275,194.358 333,179C318.5,179 301.746,179.372 292,192Z" style="fill:white;fill-rule:nonzero;"/>
    </g>
    <g transform="matrix(1,0,0,1,-118.379,-135.278)">
        <path d="M271,256C267,254.818 260.797,256.846 257.43,254.883C253.79,252.76 253.23,245.492 250.867,242.093C244.638,233.132 231.742,235.449 223,238.926C207.335,245.156 193.721,262.453 200.133,280C202.057,285.264 205.983,290.106 210.015,293.907C213.798,297.472 217.875,300.075 223,301C220.818,297.061 218.181,293.307 216.739,289C213.144,278.259 216.376,267.216 222.387,258.001C225.497,253.234 231.805,247.187 237.999,247.137C243.97,247.088 247.955,253.851 245.413,258.996C242.434,265.024 235.59,268.198 232.648,274.171C225.813,288.045 234.969,304.758 249,309.755C258.42,313.109 269.844,313.317 279,308.95C289.922,303.741 299.184,290.427 295.348,278C293.103,270.726 286.12,266.17 282.109,260C280.043,256.823 278.611,253.442 281.333,250.189C289.285,240.686 298.693,253.508 302.996,260C308.467,268.253 312.984,277.899 310.082,288C308.742,292.661 305.833,296.576 304,301C310.061,298.932 315.187,295.895 319.381,290.961C335.415,272.097 325.827,248.327 304,239.199C288.368,232.662 271.879,236.763 271,256Z" style="fill:white;fill-rule:nonzero;"/>
    </g>
    <g transform="matrix(1,0,0,1,-118.379,-135.278)">
        <path d="M237.559,252.176C234.959,253.752 235.905,261.844 239.624,259.824C242.989,257.997 241.166,249.99 237.559,252.176Z" style="fill:white;fill-rule:nonzero;"/>
    </g>
    <g transform="matrix(1,0,0,1,-118.379,-135.278)">
        <path d="M287.46,253.176C284.235,254.97 285.599,262.943 289.606,260.824C292.887,259.089 291.154,251.122 287.46,253.176Z" style="fill:white;fill-rule:nonzero;"/>
    </g>
    <g transform="matrix(1,0,0,1,-118.379,-135.278)">
        <path d="M260,288C257.754,294.446 253.213,294.982 247,295C252.027,301.342 256.114,298.694 263,298.969C269.7,299.237 274.056,300.747 279,295C277.345,294.985 275.612,295.08 273.975,294.772C272.986,294.585 271.897,294.352 271.024,293.821C268.527,292.303 265.78,287.954 267.571,287.81C273.436,287.34 278.701,278.531 269.891,274.742C266.299,273.197 258.438,273.164 255.318,275.742C249.853,280.259 255.454,286.195 260,288Z" style="fill:rgb(184,72,27);fill-rule:nonzero;"/>
    </g>
</svg>